<svg t="1720504346247" class="icon" viewBox="0 0 1024 1024" version="1.1" xmlns="http://www.w3.org/2000/svg" p-id="34033" width="32" height="32"><path d="M955.738 138.466c-2.532 82.414-20.32 161.628-50.016 238.372-35.533 91.823-87.505 172.634-160.36 239.407-5.911 5.418-7.763 11.22-6.983 18.86 2.523 24.7 4.544 49.451 7.087 74.15 5.93 57.606-14.243 104.747-60.684 138.204-49.808 35.883-101.63 69.004-153.044 102.612-32.396 21.178-72.215 1.954-75.822-36.467-4.142-44.13-7.399-88.35-10.469-132.569-1.536-22.126-0.94-22.324-22.358-25.148-56.897-7.502-101.416-34.496-131.986-83.511-15.731-25.222-23.526-53.12-26.263-82.414-0.821-8.789-4.361-11.033-12.643-11.492-46.026-2.547-92.05-5.272-138.013-8.743-38.23-2.888-57.627-43.203-37.13-76.853 14.404-23.647 29.718-46.74 44.585-70.106 16.009-25.161 31.915-50.388 47.965-75.522 29.37-45.992 71.71-70.835 125.913-71.269 31.031-0.249 62.13 5.225 93.148 8.567 5.878 0.634 10.04-0.175 14.098-4.71 72.022-80.498 161.145-134.828 262.054-171.181 57.037-20.55 115.726-33.96 175.947-40.17 30.349-3.13 60.916-4.282 91.239 1.337 16.525 3.063 17.369 3.739 19.911 19.878 2.542 16.126 4.565 32.338 3.824 48.768zM781.944 341.622c0.67-54.321-44.325-101.047-97.795-101.93-55.551-0.918-103.642 39.466-104.969 102.52-1.105 52.594 46.536 100.224 99.696 100.6 56.622 0.4 102.368-44.512 103.068-101.19z" fill="#d4237a" p-id="34034"></path><path d="M184.696 651.758c13.627 0.187 21.171 6.199 26.055 20.112 19.147 54.544 53.989 95.93 104.506 123.963 11.148 6.187 22.89 11.211 35.029 15.35 21.827 7.44 26.804 28.703 10.607 45.06-23.97 24.205-48.204 48.152-72.18 72.352-7.926 8-16.645 11.788-27.803 7.644-11.324-4.206-16.786-12.596-17.357-24.323-0.361-7.437-0.177-14.9-0.353-22.349-0.324-13.69-0.45-13.8-13.049-9.627-26.934 8.92-53.84 17.931-80.773 26.857-7.947 2.634-15.913 3.726-23.68-0.673-11.392-6.45-15.69-17.984-11.106-32.17 8.943-27.674 18.339-55.202 27.486-82.81 3.968-11.976 3.725-12.242-9.21-12.444-7.807-0.122-15.623 0.011-23.416-0.365-11.35-0.547-19.436-6.046-23.64-16.784-4.1-10.474-1.48-19.594 6.181-27.302 25.017-25.167 50.144-50.225 75.26-75.296 5.002-4.992 10.935-7.82 17.443-7.195z" fill="#d4237a" p-id="34035"></path></svg>